<svg xmlns="http://www.w3.org/2000/svg" width="81" height="79" viewBox="0 0 81 79">
    <g fill="none" fill-rule="evenodd">
        <path fill="#F3F5F8" stroke="#B9C6D6" d="M75.063 26.551H5.914A4.915 4.915 0 0 1 1 21.64V5.595C1 2.882 3.2.68 5.914.68h69.149c2.711 0 4.912 2.2 4.912 4.914v16.044c0 2.712-2.2 4.912-4.912 4.912z"/>
        <path fill="#E8ECF1" stroke="#B9C6D6" d="M75.063 52.422H5.914A4.915 4.915 0 0 1 1 47.51V31.466c0-2.714 2.2-4.915 4.914-4.915h69.149c2.711 0 4.912 2.201 4.912 4.915V47.51c0 2.711-2.2 4.912-4.912 4.912z"/>
        <path fill="#D0D9E4" stroke="#B9C6D6" d="M75.063 78.301H5.914A4.915 4.915 0 0 1 1 73.387v-16.05c0-2.714 2.2-4.915 4.914-4.915h69.149c2.711 0 4.912 2.201 4.912 4.914V73.38c0 2.72-2.2 4.921-4.912 4.921z"/>
        <path fill="#B9C6D6" d="M18.699 13.62a4.765 4.765 0 0 1-9.527 0 4.768 4.768 0 0 1 4.768-4.767 4.765 4.765 0 0 1 4.759 4.767zM69.085 11.571a1.36 1.36 0 0 1-1.363 1.363 1.36 1.36 0 0 1 0-2.718c.752 0 1.363.604 1.363 1.355zM63.64 11.571c0 .76-.613 1.363-1.363 1.363a1.36 1.36 0 0 1 0-2.718c.75 0 1.363.604 1.363 1.355zM71.812 15.661c0 .75-.613 1.364-1.363 1.364a1.364 1.364 0 1 1 1.363-1.363zM66.358 15.661a1.36 1.36 0 1 1-2.718 0 1.36 1.36 0 1 1 2.718 0zM58.195 11.571c0 .76-.613 1.363-1.364 1.363a1.36 1.36 0 1 1 0-2.718c.751 0 1.364.604 1.364 1.355zM60.913 15.661a1.36 1.36 0 0 1-2.718 0 1.358 1.358 0 1 1 2.718 0zM52.741 11.571c0 .76-.604 1.363-1.355 1.363-.759 0-1.363-.604-1.363-1.363 0-.75.604-1.355 1.363-1.355.751 0 1.355.604 1.355 1.355zM55.468 15.661c0 .75-.611 1.364-1.363 1.364-.751 0-1.364-.613-1.364-1.364a1.364 1.364 0 0 1 2.727 0zM47.296 11.571c0 .76-.604 1.363-1.363 1.363-.75 0-1.355-.604-1.355-1.363 0-.75.604-1.355 1.355-1.355.759 0 1.363.604 1.363 1.355zM50.023 15.661c0 .75-.613 1.364-1.363 1.364-.751 0-1.364-.613-1.364-1.364 0-.752.613-1.363 1.364-1.363.75 0 1.363.61 1.363 1.363zM18.699 39.491a4.765 4.765 0 0 1-4.76 4.768 4.768 4.768 0 1 1 0-9.536 4.765 4.765 0 0 1 4.76 4.768zM69.085 37.45c0 .75-.611 1.355-1.363 1.355a1.36 1.36 0 1 1 0-2.718 1.36 1.36 0 0 1 1.363 1.363zM63.64 37.45a1.36 1.36 0 0 1-1.363 1.355 1.36 1.36 0 1 1 0-2.718c.75 0 1.363.604 1.363 1.363zM71.812 41.532c0 .75-.613 1.363-1.363 1.363a1.365 1.365 0 0 1-1.364-1.363c0-.75.611-1.363 1.364-1.363.75 0 1.363.612 1.363 1.363zM66.358 41.532a1.36 1.36 0 1 1-2.718 0 1.36 1.36 0 0 1 2.718 0zM58.195 37.45a1.36 1.36 0 0 1-1.364 1.355 1.358 1.358 0 1 1 0-2.718c.751 0 1.364.604 1.364 1.363zM60.913 41.532a1.36 1.36 0 0 1-2.718 0 1.36 1.36 0 1 1 2.718 0zM52.741 37.45c0 .75-.604 1.355-1.355 1.355-.759 0-1.363-.604-1.363-1.355 0-.759.604-1.363 1.363-1.363.751 0 1.355.604 1.355 1.363zM55.468 41.532c0 .75-.611 1.363-1.363 1.363-.751 0-1.364-.612-1.364-1.363 0-.75.613-1.363 1.364-1.363.752 0 1.363.612 1.363 1.363zM47.296 37.45c0 .75-.604 1.355-1.363 1.355-.75 0-1.355-.604-1.355-1.355 0-.759.604-1.363 1.355-1.363.759 0 1.363.604 1.363 1.363zM50.023 41.532c0 .75-.613 1.363-1.363 1.363-.751 0-1.364-.612-1.364-1.363 0-.75.613-1.363 1.364-1.363.75 0 1.363.612 1.363 1.363zM18.699 65.362a4.765 4.765 0 0 1-4.76 4.767 4.768 4.768 0 1 1 0-9.535 4.765 4.765 0 0 1 4.76 4.768zM69.085 63.32c0 .751-.611 1.364-1.363 1.364-.75 0-1.364-.613-1.364-1.363a1.364 1.364 0 0 1 2.727 0zM63.64 63.32c0 .751-.613 1.364-1.363 1.364-.751 0-1.364-.613-1.364-1.363 0-.752.613-1.364 1.364-1.364.75 0 1.363.612 1.363 1.364zM71.812 67.403a1.364 1.364 0 1 1-1.363-1.363c.75 0 1.363.612 1.363 1.363zM66.358 67.403a1.358 1.358 0 1 1-2.718 0 1.36 1.36 0 0 1 2.718 0zM58.195 63.32c0 .751-.613 1.364-1.364 1.364a1.364 1.364 0 1 1 1.363-1.363zM60.913 67.403a1.36 1.36 0 1 1-2.718 0 1.36 1.36 0 1 1 2.718 0zM52.741 63.32a1.36 1.36 0 1 1-2.718 0 1.36 1.36 0 1 1 2.718 0zM55.468 67.403a1.364 1.364 0 0 1-2.727 0c0-.751.613-1.364 1.364-1.364.752 0 1.363.613 1.363 1.364zM47.296 63.32a1.36 1.36 0 0 1-2.718 0 1.358 1.358 0 1 1 2.718 0zM50.023 67.403c0 .752-.613 1.363-1.363 1.363-.751 0-1.364-.611-1.364-1.363 0-.751.613-1.364 1.364-1.364.75 0 1.363.613 1.363 1.364z"/>
    </g>
</svg>
