<?xml version="1.0" encoding="utf-8"?>
<!-- Generator: Adobe Illustrator 21.1.0, SVG Export Plug-In . SVG Version: 6.00 Build 0)  -->
<svg version="1.1" id="Camada_1" xmlns="http://www.w3.org/2000/svg" xmlns:xlink="http://www.w3.org/1999/xlink" x="0px" y="0px"
	 viewBox="0 0 16 16" style="enable-background:new 0 0 16 16;" xml:space="preserve">
<style type="text/css">
	.st0{fill:#FFFFFF;}
</style>
<path id="_xF00C_-copy" class="st0" d="M15.9,4.4c0,0.3-0.1,0.5-0.3,0.7l-8.8,8.8c-0.2,0.2-0.4,0.3-0.7,0.3s-0.5-0.1-0.7-0.3
	L0.3,8.8C0.2,8.6,0.1,8.4,0.1,8.1c0-0.3,0.1-0.5,0.3-0.7L1.7,6c0.2-0.2,0.4-0.3,0.7-0.3c0.3,0,0.5,0.1,0.7,0.3l3,3l6.7-6.7
	C13.1,2.1,13.3,2,13.6,2s0.5,0.1,0.7,0.3l1.4,1.4C15.8,3.9,15.9,4.1,15.9,4.4z"/>
</svg>
