<?xml version="1.0" encoding="UTF-8"?>
<svg width="16px" height="16px" viewBox="0 0 16 16" version="1.1" xmlns="http://www.w3.org/2000/svg" xmlns:xlink="http://www.w3.org/1999/xlink">
    <!-- Generator: Sketch 46.2 (44496) - http://www.bohemiancoding.com/sketch -->
    <title>forms/checkbox/checked_2@2x</title>
    <desc>Created with Sketch.</desc>
    <defs></defs>
    <g id="symbols" stroke="none" stroke-width="1" fill="none" fill-rule="evenodd">
        <g id="forms/checkbox/checked_2">
            <rect id="Rectangle-8-Copy-3" stroke="#7ED321" stroke-width="8" x="4" y="4" width="8" height="8" rx="4"></rect>
            <path d="M12.3247768,6.58705357 C12.3247768,6.73586384 12.272694,6.86235067 12.1685268,6.96651786 L7.36941964,11.765625 C7.26525246,11.8697922 7.13876563,11.921875 6.98995536,11.921875 C6.84114509,11.921875 6.71465826,11.8697922 6.61049107,11.765625 L3.83147321,8.98660714 C3.72730603,8.88243996 3.67522321,8.75595313 3.67522321,8.60714286 C3.67522321,8.45833259 3.72730603,8.33184576 3.83147321,8.22767857 L4.59040179,7.46875 C4.69456897,7.36458281 4.8210558,7.3125 4.96986607,7.3125 C5.11867634,7.3125 5.24516317,7.36458281 5.34933036,7.46875 L6.98995536,9.11495536 L10.6506696,5.44866071 C10.7548368,5.34449353 10.8813237,5.29241071 11.0301339,5.29241071 C11.1789442,5.29241071 11.305431,5.34449353 11.4095982,5.44866071 L12.1685268,6.20758929 C12.272694,6.31175647 12.3247768,6.4382433 12.3247768,6.58705357 Z" id="-copy" fill="#FFFFFF"></path>
        </g>
        <g id="components" transform="translate(-2708.000000, -750.000000)"></g>
    </g>
</svg>