<svg xmlns="http://www.w3.org/2000/svg" width="100" height="92" viewBox="0 0 100 92">
    <g fill="none" fill-rule="evenodd" stroke="#B9C6D6">
        <path fill="#E8ECF1" d="M91.913 80.547S77.385 91.49 45.962 91.49C14.536 91.491 0 80.68 0 80.547h91.913z"/>
        <path fill="#D0D9E4" d="M76.596 66.932a1.707 1.707 0 0 1-1.705-1.704c0-.939.766-1.702 1.705-1.702 10.215 0 17.793-6.343 18.642-15.32H80.004c-.94 0-1.704-.763-1.704-1.702 0-.94.764-1.704 1.704-1.704h17.022c.938 0 1.693.764 1.693 1.704 0 11.643-9.506 20.428-22.123 20.428z"/>
        <path fill="#FFF" d="M27.136 32.409c-.432 0-.872-.169-1.204-.5a7.778 7.778 0 0 1-2.296-5.535c0-2.095.815-4.065 2.296-5.544a4.41 4.41 0 0 0 1.304-3.132c0-1.19-.466-2.304-1.304-3.134a1.704 1.704 0 0 1 2.408-2.41 7.782 7.782 0 0 1 2.294 5.544 7.795 7.795 0 0 1-2.294 5.542 4.386 4.386 0 0 0-1.304 3.134 4.41 4.41 0 0 0 1.304 3.132 1.704 1.704 0 0 1 0 2.411 1.72 1.72 0 0 1-1.204.492zM64.585 32.409c-.44 0-.872-.169-1.204-.5a7.793 7.793 0 0 1-2.302-5.535c0-2.095.823-4.065 2.302-5.544a4.393 4.393 0 0 0 1.296-3.132c0-1.19-.456-2.304-1.296-3.134a1.708 1.708 0 0 1 0-2.41 1.708 1.708 0 0 1 2.41 0 7.79 7.79 0 0 1 2.294 5.544 7.804 7.804 0 0 1-2.294 5.542 4.377 4.377 0 0 0-1.304 3.134c0 1.18.464 2.294 1.304 3.132a1.708 1.708 0 0 1 0 2.411 1.736 1.736 0 0 1-1.206.492zM45.753 27.304c-.432 0-.872-.166-1.204-.498a9.899 9.899 0 0 1-2.92-7.04c0-2.66 1.041-5.162 2.92-7.047a6.491 6.491 0 0 0 1.928-4.63c0-1.753-.683-3.4-1.928-4.638a1.704 1.704 0 0 1 2.408-2.41 9.881 9.881 0 0 1 2.917 7.048c0 2.66-1.03 5.154-2.917 7.039a6.518 6.518 0 0 0-1.919 4.638 6.51 6.51 0 0 0 1.92 4.63 1.704 1.704 0 0 1-1.205 2.908z"/>
        <path fill="#E8ECF1" d="M27.983 80.547H63.93c12.068-7.25 17.768-21.794 17.768-39.147H10.215c0 17.353 5.708 31.898 17.768 39.147z"/>
    </g>
</svg>
