<svg xmlns="http://www.w3.org/2000/svg" width="82" height="85" viewBox="0 0 82 85">
    <g fill="none" fill-rule="evenodd" stroke="#B9C6D6">
        <path fill="#FFF" d="M32.957 37.647l.01-.006c9.135-5.398 13.88-11.694 14.505-19.248.219-2.622 2.554-4.716 5.205-4.682a10.19 10.19 0 0 1 7.136 3.054 10.186 10.186 0 0 1 2.947 7.187v.815c0 5.03-1.133 8.674-3.266 12.537h13.77c4.188 0 7.595 3.407 7.595 7.595 0 1.96-.738 3.808-2.082 5.224a7.565 7.565 0 0 1 1.988 5.117 7.597 7.597 0 0 1-3.641 6.483 7.548 7.548 0 0 1 1.056 3.86 7.597 7.597 0 0 1-3.642 6.482 7.547 7.547 0 0 1 1.056 3.859c0 4.188-3.407 7.595-7.595 7.595h-7.662c-1.854 0-3.622.017-5.332.033-1.546.014-3.05.029-4.52.029-9.493 0-17.635-.592-27.429-5.489a2.424 2.424 0 0 1-1.34-2.168V44.899c0-.919.519-1.758 1.34-2.169.667-.333 1.4-.686 2.176-1.06 2.222-1.072 4.986-2.404 7.725-4.023zM75.817 23.76h-5.171a2.424 2.424 0 0 1 0-4.847h5.17a2.424 2.424 0 0 1 0 4.848"/>
        <g fill="#FFF">
            <path d="M39.62 23.76h-5.17a2.424 2.424 0 1 1 0-4.847h5.17a2.424 2.424 0 0 1 0 4.848M47.38 10.327a2.423 2.423 0 0 1-2.102-1.212l-2.586-4.479a2.424 2.424 0 1 1 4.199-2.424l2.585 4.479a2.424 2.424 0 0 1-2.097 3.636M62.887 10.327A2.424 2.424 0 0 1 60.79 6.69l2.586-4.479a2.424 2.424 0 1 1 4.198 2.424L64.99 9.115a2.423 2.423 0 0 1-2.102 1.212"/>
        </g>
        <path fill="#FFF" d="M16.19 70.784V83.55h-4.848V70.784a2.425 2.425 0 0 1 4.848 0"/>
        <path fill="#E8ECF1" d="M75.817 23.76h-5.171a2.424 2.424 0 0 1 0-4.847h5.17a2.424 2.424 0 0 1 0 4.848M39.62 23.76h-5.17a2.424 2.424 0 1 1 0-4.847h5.17a2.424 2.424 0 0 1 0 4.848M47.38 10.327a2.423 2.423 0 0 1-2.102-1.212l-2.586-4.479a2.424 2.424 0 1 1 4.199-2.424l2.585 4.479a2.424 2.424 0 0 1-2.097 3.636M62.887 10.327A2.424 2.424 0 0 1 60.79 6.69l2.586-4.479a2.424 2.424 0 1 1 4.198 2.424L64.99 9.115a2.423 2.423 0 0 1-2.102 1.212"/>
        <path fill="#FFF" d="M16.19 70.784V83.55h-4.848V70.784a2.425 2.425 0 0 1 4.848 0"/>
        <path fill="#E8ECF1" d="M24.108 37.304H3.424A2.425 2.425 0 0 0 1 39.728v41.367c0 1.34 1.086 2.424 2.424 2.455h15.513a7.683 7.683 0 0 0 6.795-4.237 7.53 7.53 0 0 0 .8-3.389V39.728a2.425 2.425 0 0 0-2.424-2.424"/>
        <path fill="#D0D9E4" d="M16.19 70.622V83.55h-4.848V70.622a2.425 2.425 0 0 1 4.848 0"/>
    </g>
</svg>
