<svg xmlns="http://www.w3.org/2000/svg" width="102" height="137" viewBox="0 0 102 137">
    <g fill="none" fill-rule="evenodd" stroke="#B9C6D6" stroke-linecap="round" stroke-linejoin="round">
        <path fill="#E8ECF1" d="M86.468 70.77L52.84 51.353a3.985 3.985 0 0 0-3.984 0L15.228 70.77a3.985 3.985 0 0 0-1.993 3.451v38.83c0 1.423.76 2.739 1.993 3.45l33.627 19.416a3.981 3.981 0 0 0 3.985 0L86.467 116.5a3.984 3.984 0 0 0 1.993-3.451V74.22c0-1.424-.76-2.739-1.992-3.45"/>
        <path fill="#E8ECF1" d="M37.29 100.793L13.235 86.905v26.145c0 1.423.76 2.738 1.992 3.45l.563.325 33.065 19.09a3.981 3.981 0 0 0 1.992.534V93.635l-.058-.034-13.499 7.192"/>
        <path fill="#F3F5F8" d="M99.706 65.586c2.015-1.144.633-2.164.15-2.457l-.084-.048c-.041-.023-.066-.035-.066-.035v-.004c-21.28-12.358-30.513-17.636-34.032-19.647a3.203 3.203 0 0 1-.21-.11c-1.08-.605-2.267-.155-2.64.016l-.012.009.003-.004a2.216 2.216 0 0 0-.07.033L50.54 50.385l37.656 21.74 11.242-6.38a7.55 7.55 0 0 1 .268-.16"/>
        <path fill="#F3F5F8" d="M99.706 78.307c2.015 1.144.633 2.164.15 2.457l-.084.048a2.142 2.142 0 0 1-.066.035v.003c-21.28 12.358-30.513 17.637-34.032 19.648a3.069 3.069 0 0 0-.21.11c-1.08.605-2.267.154-2.64-.016l-.012-.01.003.005a3.226 3.226 0 0 1-.07-.033L50.54 93.507l37.656-21.74 11.242 6.38c.082.051.17.104.268.16M2.062 65.586c-2.015-1.144-.633-2.164-.149-2.457l.084-.048a1.7 1.7 0 0 1 .065-.035v-.004c21.28-12.358 30.513-17.636 34.032-19.647.065-.031.134-.066.21-.11 1.08-.605 2.268-.155 2.64.016l.012.009-.002-.004.07.033 12.204 7.046-37.656 21.74-11.24-6.38a8.084 8.084 0 0 0-.27-.16"/>
        <path fill="#F3F5F8" d="M2.062 78.307c-2.015 1.144-.633 2.164-.149 2.457l.084.048a1.7 1.7 0 0 0 .065.035v.003c21.28 12.358 30.513 17.637 34.032 19.648.065.03.134.066.21.11 1.08.605 2.268.154 2.64-.016l.012-.01-.002.005a2.8 2.8 0 0 0 .07-.033l12.204-7.047-37.656-21.74-11.24 6.38c-.084.051-.17.104-.27.16"/>
        <path fill="#F3F5F8" d="M50.847 93.635v-43.43L13.235 71.918l37.612 21.716"/>
        <path fill="#D0D9E4" d="M13.235 71.92l37.612 21.715L88.46 71.92 50.847 50.204 13.235 71.92"/>
        <path fill="#D0D9E4" d="M88.46 71.92L50.847 50.203v43.431L88.46 71.92"/>
        <g fill="#E8ECF1">
            <path d="M65.787 24.761l-12.89 12.89a3.407 3.407 0 0 1-4.818 0l-12.89-12.89a3.407 3.407 0 1 1 4.818-4.818l7.073 7.074V4.409a3.407 3.407 0 0 1 6.815 0v22.608l7.073-7.074a3.407 3.407 0 1 1 4.819 4.818"/>
        </g>
    </g>
</svg>
