<?xml version="1.0" encoding="UTF-8"?>
<svg width="62px" height="80px" viewBox="0 0 62 80" version="1.1" xmlns="http://www.w3.org/2000/svg" xmlns:xlink="http://www.w3.org/1999/xlink">
    <!-- Generator: Sketch 47.1 (45422) - http://www.bohemiancoding.com/sketch -->
    <title>Group 6</title>
    <desc>Created with Sketch.</desc>
    <defs></defs>
    <g id="import-&amp;-export" stroke="none" stroke-width="1" fill="none" fill-rule="evenodd">
        <g id="Step-1---Upload-success-(caso-tenha-que-escolher-o-tipo-de-csv)" transform="translate(-714.000000, -390.000000)">
            <g id="Group-11" transform="translate(674.000000, 391.000000)">
                <g id="Group-6" transform="translate(41.000000, 0.000000)">
                    <g id="xls">
                        <path d="M42.2100438,0 L2.02854682,0 C0.905230366,0 0,0.905230366 0,2.66376584 L0,76.157048 C0,76.6364912 0.905230366,77.5434524 2.02854682,77.5434524 L57.5158796,77.5434524 C58.6322727,77.5434524 59.5375031,76.6364912 59.5375031,76.157048 L59.5375031,17.9713325 C59.5375031,17.0037918 59.4094208,16.6939711 59.1861422,16.4706925 L43.0754648,0.358284294 C42.8452628,0.128082308 42.5337113,0 42.2100438,0 Z" id="Fill-1" stroke="#B9C6D6" fill="#FFFFFF"></path>
                        <g id="Group-4" transform="translate(7.200000, 21.600000)">
                            <path d="M16.8,4.8 L44.6,4.8 C45.1522847,4.8 45.6,5.24771525 45.6,5.8 L45.6,10.2 L45.6,15 L45.6,19.8 L45.6,24.2 L45.6,24.2 C45.6,24.7522847 45.1522847,25.2 44.6,25.2 L1,25.2 C0.44771525,25.2 6.76353751e-17,24.7522847 0,24.2 L0,19.8 L0,15 L0,10.2 L0,7.5 L0,1 L0,1 C-6.76353751e-17,0.44771525 0.44771525,1.01453063e-16 1,0 L1,0 L15.8,0 C16.3522847,1.86065652e-15 16.8,0.44771525 16.8,1 L16.8,4.8 Z" id="Combined-Shape" fill="#F3F5F8"></path>
                            <path d="M0.5,5.3 L0.5,10.3 L45.1,10.3 L45.1,5.8 C45.1,5.52385763 44.8761424,5.3 44.6,5.3 L0.5,5.3 Z" id="Rectangle-2" stroke="#B9C6D6"></path>
                            <rect id="Rectangle-2-Copy" stroke="#B9C6D6" x="0.5" y="10.1" width="44.6" height="5"></rect>
                            <rect id="Rectangle-2-Copy-3" stroke="#B9C6D6" x="0.5" y="14.9" width="44.6" height="5"></rect>
                            <path d="M0.5,19.7 L0.5,24.2 C0.5,24.4761424 0.723857625,24.7 1,24.7 L44.6,24.7 C44.8761424,24.7 45.1,24.4761424 45.1,24.2 L45.1,19.7 L0.5,19.7 Z" id="Rectangle-2-Copy-4" stroke="#B9C6D6"></path>
                            <rect id="Rectangle-2-Copy-4" stroke="#B9C6D6" x="0.5" y="0.5" width="15.8" height="24.2" rx="1"></rect>
                        </g>
                        <polygon id="Fill-2" stroke="#B9C6D6" fill="#E8ECF1" stroke-linecap="round" stroke-linejoin="round" points="42.9266124 0.555600282 42.9266124 16.9657133 59.3280712 16.9657133"></polygon>
                    </g>
                    <path d="M59.5375031,57.6 L59.5375031,76.157048 C59.5375031,76.6364912 58.6322727,77.5434524 57.5158796,77.5434524 L2.02854682,77.5434524 C0.905230366,77.5434524 0,76.6364912 0,76.157048 L0,57.6 L59.5375031,57.6 Z" id="Combined-Shape" stroke="#B9C6D6" fill="#97CC61"></path>
                    <text id=".XLS" font-family="Rubik-Medium, Rubik" font-size="12" font-weight="400" letter-spacing="1" fill="#FFFFFF">
                        <tspan x="14.8327515" y="71.2">.XLS</tspan>
                    </text>
                </g>
            </g>
        </g>
    </g>
</svg>