<svg xmlns="http://www.w3.org/2000/svg" width="62" height="80" viewBox="0 0 62 80">
    <g fill="none" fill-rule="evenodd">
        <path fill="#FFF" stroke="#B9C6D6" d="M43.21 1H3.029C1.905 1 1 1.905 1 3.664v73.493c0 .48.905 1.386 2.029 1.386h55.487c1.116 0 2.022-.907 2.022-1.386V18.971c0-.967-.129-1.277-.352-1.5L44.076 1.358A1.224 1.224 0 0 0 43.21 1z"/>
        <g transform="translate(8.2 22.6)">
            <path fill="#F3F5F8" d="M16.8 4.8h27.8a1 1 0 0 1 1 1v18.4a1 1 0 0 1-1 1H1a1 1 0 0 1-1-1V1a1 1 0 0 1 1-1h14.8a1 1 0 0 1 1 1v3.8z"/>
            <path stroke="#B9C6D6" d="M.5 5.3v5h44.6V5.8a.5.5 0 0 0-.5-.5H.5z"/>
            <path stroke="#B9C6D6" d="M.5 10.1h44.6v5H.5z"/>
            <path stroke="#B9C6D6" d="M.5 14.9h44.6v5H.5z"/>
            <path stroke="#B9C6D6" d="M.5 19.7v4.5a.5.5 0 0 0 .5.5h43.6a.5.5 0 0 0 .5-.5v-4.5H.5z"/>
            <rect width="15.8" height="24.2" x=".5" y=".5" stroke="#B9C6D6" rx="1"/>
        </g>
        <path fill="#E8ECF1" stroke="#B9C6D6" stroke-linecap="round" stroke-linejoin="round" d="M43.927 1.556v16.41h16.401z"/>
        <path fill="#97CC61" stroke="#B9C6D6" d="M60.538 58.6v18.557c0 .48-.906 1.386-2.022 1.386H3.029C1.905 78.543 1 77.636 1 77.157V58.6h59.538z"/>
        <text fill="#FFF" font-family="Rubik-Medium, Rubik" font-size="12" font-weight="400" letter-spacing="1" transform="translate(1 1)">
            <tspan x="13.819" y="71.2">.XML</tspan>
        </text>
    </g>
</svg>
