<svg xmlns="http://www.w3.org/2000/svg" xmlns:xlink="http://www.w3.org/1999/xlink" width="95" height="21" viewBox="0 0 95 21">
    <defs>
        <path id="a" d="M0 .041h19.75v19.754H0z"/>
        <path id="c" d="M0 20.084h94.892V.33H0z"/>
    </defs>
    <g fill="none" fill-rule="evenodd" opacity=".5">
        <path fill="#000" d="M10.928 8.309H8.837c-.192 0-.286.095-.286.286v.588c0 .19.094.286.286.286h2.091c.191 0 .287-.095.287-.286v-.588c0-.191-.096-.286-.287-.286"/>
        <g transform="translate(0 .289)">
            <mask id="b" fill="#fff">
                <use xlink:href="#a"/>
            </mask>
            <path fill="#000" d="M13.679 8.865c0 1.299-.612 1.949-1.834 1.949h-2.85a.92.92 0 0 1-.444-.1v.63c0 .287.142.43.429.43h4.34v2.35H8.078c-1.338 0-2.006-.66-2.006-1.977V7.69c0-1.318.644-1.977 1.934-1.977h3.839c1.222 0 1.834.64 1.834 1.92v1.232zM9.875.041C4.421.041 0 4.463 0 9.918c0 5.455 4.421 9.877 9.875 9.877s9.875-4.422 9.875-9.877c0-5.455-4.42-9.877-9.875-9.877z" mask="url(#b)"/>
        </g>
        <path fill="#000" d="M34.735 9.984h-6.47a4.89 4.89 0 0 1 .31-1.394c.18-.456.418-.85.708-1.171a2.935 2.935 0 0 1 1.007-.733 3.07 3.07 0 0 1 1.238-.252c.526 0 .994.098 1.39.291.397.194.734.46 1 .794.267.337.473.735.61 1.183.124.407.193.837.207 1.282m.467-1.242a4.393 4.393 0 0 0-.688-1.495 3.554 3.554 0 0 0-1.23-1.058c-.501-.265-1.103-.399-1.789-.399a3.63 3.63 0 0 0-2.702 1.22 4.586 4.586 0 0 0-.858 1.45c-.216.567-.326 1.222-.326 1.946 0 .64.075 1.248.221 1.805.148.563.38 1.06.688 1.48.313.422.72.753 1.212.984.466.22 1.029.33 1.672.33h.093c1.005 0 1.864-.288 2.553-.856.692-.571 1.106-1.384 1.232-2.415l.022-.175h-.643l-.02.133c-.137.895-.489 1.572-1.045 2.015-.56.445-1.277.67-2.132.67-.58 0-1.076-.1-1.472-.298a2.646 2.646 0 0 1-.97-.814 3.62 3.62 0 0 1-.564-1.232 6.697 6.697 0 0 1-.198-1.404h7.117l.006-.15a6.099 6.099 0 0 0-.179-1.737M36.81 11.939a5.788 5.788 0 0 1-.016-2.961c.122-.472.312-.902.566-1.278.252-.372.58-.68.978-.915.394-.233.869-.35 1.412-.35.987 0 1.79.341 2.386 1.016.601.68.906 1.68.906 2.971 0 .534-.076 1.048-.225 1.529a3.946 3.946 0 0 1-.646 1.26 3.117 3.117 0 0 1-1.026.852c-.4.208-.87.314-1.395.314-.524 0-.987-.105-1.377-.313a2.8 2.8 0 0 1-.973-.856 4.045 4.045 0 0 1-.59-1.27zm6.232-9.266v5.068a3.528 3.528 0 0 0-.955-1.204c-.612-.496-1.398-.747-2.337-.747-.608 0-1.157.129-1.632.383-.471.253-.87.597-1.187 1.023a4.685 4.685 0 0 0-.72 1.474 6.162 6.162 0 0 0-.247 1.752c0 .654.086 1.266.255 1.82.172.558.423 1.047.749 1.453.328.409.73.732 1.197.962.467.231 1 .348 1.585.348.906 0 1.678-.251 2.294-.747.422-.34.756-.752.998-1.234v1.799h.644V2.673h-.644z"/>
        <mask id="d" fill="#fff">
            <use xlink:href="#c"/>
        </mask>
        <path fill="#000" d="M45.642 4.66h.644V2.673h-.644zM45.642 14.823h.644V5.989h-.644zM51.855 5.789c-.472 0-.895.058-1.259.174a3.41 3.41 0 0 0-1.032.522 2.71 2.71 0 0 0-.81.979V5.988h-.645v8.835h.644v-4.98c0-.448.065-.89.193-1.315.126-.42.323-.796.584-1.115.26-.317.595-.57.997-.752.4-.183.887-.258 1.443-.227l.165.01v-.65l-.28-.005zM59.36 9.984h-6.47c.043-.513.146-.981.31-1.394.18-.455.418-.85.708-1.172a2.94 2.94 0 0 1 1.007-.732 3.07 3.07 0 0 1 1.239-.252c.525 0 .993.098 1.39.291.397.194.733.46.998.794.269.337.474.735.611 1.183.125.407.194.837.207 1.282m.467-1.242a4.382 4.382 0 0 0-.687-1.495 3.547 3.547 0 0 0-1.23-1.058c-.502-.265-1.104-.399-1.79-.399a3.635 3.635 0 0 0-2.702 1.22 4.613 4.613 0 0 0-.858 1.45c-.216.567-.325 1.222-.325 1.946 0 .64.074 1.248.22 1.805.148.564.38 1.061.689 1.48.313.422.72.753 1.21.984.468.22 1.03.33 1.674.33h.093c1.005 0 1.864-.288 2.552-.856.692-.571 1.107-1.383 1.233-2.415l.022-.175h-.644l-.02.133c-.137.895-.488 1.573-1.044 2.015-.56.445-1.278.67-2.133.67-.58 0-1.075-.1-1.471-.298a2.65 2.65 0 0 1-.971-.814 3.604 3.604 0 0 1-.563-1.232 6.644 6.644 0 0 1-.199-1.404H60l.006-.151a6.096 6.096 0 0 0-.179-1.736M67.562 11.609l-.011.144a2.8 2.8 0 0 1-.297 1.092 2.796 2.796 0 0 1-.652.824 2.815 2.815 0 0 1-.92.526c-.345.121-.724.182-1.124.182-.537 0-1.015-.103-1.422-.306a2.994 2.994 0 0 1-1.025-.828 3.77 3.77 0 0 1-.628-1.21 4.832 4.832 0 0 1-.217-1.445c0-.482.063-.98.186-1.48.123-.493.321-.945.591-1.341a3.08 3.08 0 0 1 1.074-.963c.443-.245.995-.37 1.64-.37.336 0 .66.048.964.142a2.436 2.436 0 0 1 1.42 1.148c.166.287.282.634.345 1.032l.02.131h.642l-.021-.175a3.436 3.436 0 0 0-.391-1.259 3.115 3.115 0 0 0-.76-.916c-.3-.242-.646-.43-1.027-.557a3.765 3.765 0 0 0-1.193-.19c-.695 0-1.312.134-1.835.398a3.744 3.744 0 0 0-1.297 1.064c-.337.44-.591.954-.756 1.527a6.548 6.548 0 0 0-.246 1.809c0 .599.086 1.17.256 1.697.17.531.426 1.003.758 1.403.333.403.75.727 1.237.962.49.235 1.056.355 1.685.355.5 0 .967-.076 1.386-.225a3.44 3.44 0 0 0 1.112-.642 3.25 3.25 0 0 0 .774-1.019 3.82 3.82 0 0 0 .364-1.34l.016-.17h-.648zM73.13 6.633V5.99h-1.922V3.303h-.644v2.686h-1.558v.644h1.558v6.442c0 .654.155 1.115.462 1.372.298.249.664.376 1.087.376.263 0 .44-.006.54-.018l.429-.049v-.702l-.215.086a.777.777 0 0 1-.23.03c-.232.01-.533.02-.82-.015a.553.553 0 0 1-.286-.125.805.805 0 0 1-.226-.335c-.064-.156-.097-.387-.097-.686V6.633h1.923zM80.891 10.406c0 .524-.073 1.033-.217 1.513-.143.476-.36.902-.645 1.267a3.186 3.186 0 0 1-1.051.869c-.412.214-.892.322-1.428.322-.547 0-1.033-.108-1.444-.322a3.182 3.182 0 0 1-1.052-.87 3.81 3.81 0 0 1-.644-1.266 5.246 5.246 0 0 1-.217-1.513c0-.513.072-1.017.217-1.497a3.81 3.81 0 0 1 .644-1.266 3.28 3.28 0 0 1 1.053-.879c.411-.219.897-.33 1.443-.33.535 0 1.015.111 1.427.33.415.221.77.517 1.052.879.285.364.502.79.645 1.266.144.48.217.984.217 1.497m.389-1.73a4.444 4.444 0 0 0-.765-1.468 3.892 3.892 0 0 0-1.252-1.027c-.495-.26-1.072-.391-1.713-.391-.652 0-1.235.131-1.73.39a3.892 3.892 0 0 0-1.251 1.028 4.443 4.443 0 0 0-.765 1.469 5.846 5.846 0 0 0-.256 1.729c0 .599.086 1.18.256 1.728.17.553.428 1.048.765 1.47.338.424.76.768 1.253 1.02.495.253 1.07.381 1.711.381.652 0 1.234-.128 1.73-.382a3.8 3.8 0 0 0 1.252-1.02c.337-.422.594-.917.765-1.468.17-.549.255-1.13.255-1.73 0-.598-.086-1.18-.255-1.728M86.656 5.789a4.16 4.16 0 0 0-1.258.174 3.412 3.412 0 0 0-1.033.522 2.705 2.705 0 0 0-.81.979V5.988h-.644v8.835h.644v-4.98c0-.448.065-.89.193-1.315.125-.42.322-.796.584-1.115.26-.317.595-.57.997-.752.4-.183.887-.258 1.443-.227l.165.01v-.65l-.28-.005zM94.208 5.989l-2.95 7.807-3.269-7.807h-.688l3.615 8.597-.59 1.515c-.094.24-.196.43-.302.566a.971.971 0 0 1-.342.287 1.35 1.35 0 0 1-.475.118 9.025 9.025 0 0 1-.725.024h-.157v.645h.157c.255 0 .501-.009.732-.026.242-.018.467-.069.67-.152.207-.085.398-.217.566-.392.169-.175.314-.419.432-.724l4.01-10.458h-.684z" mask="url(#d)"/>
    </g>
</svg>
