<svg xmlns="http://www.w3.org/2000/svg" xmlns:xlink="http://www.w3.org/1999/xlink" width="453" height="453" viewBox="0 0 453 453">
    <defs>
        <path id="a" d="M0 226.191c0 124.484 100.953 225.401 225.484 225.401 124.532 0 225.486-100.917 225.486-225.401C450.97 101.701 350.016.786 225.484.786 100.954.786 0 101.702 0 226.191z"/>
    </defs>
    <g fill="none" fill-rule="evenodd">
        <g transform="translate(1 -1)">
            <mask id="b" fill="#fff">
                <use xlink:href="#a"/>
            </mask>
            <path fill="#B6D0FB" d="M17.542 463.94h412.362V328.833H17.542z" mask="url(#b)"/>
            <path fill="#415B91" d="M206.026 315.156h51.018c-1.964-7.425-3.302-18.157-3.565-24.318l-44.237.137c.419 8.235-.085 15.726-3.216 24.18zm55.788 3.537h-61.059l1.038-2.456c4.003-9.495 4.416-17.624 3.807-26.91l-.123-1.88 51.48-.157.012 1.76c.046 6.003 1.67 19.636 4.115 27.339l.73 2.304z" mask="url(#b)"/>
            <path fill="#415B91" d="M97.236 112.812c-4.013 0-7.352 3.135-7.652 7.192-2.246 30.276-.51 85.174.757 125.257.422 13.325.787 24.835.937 33.298.043 2.46 4.156 7.048 7.335 8.182 5.689 1.16 256.946.302 263.48-.924 8.005-1.581 8.365-9.472 8.712-17.105.08-1.765.16-3.47.332-5.018 4.25-37.483 2.986-77.239 1.768-115.683-.292-9.212-.582-18.301-.786-27.198-.098-4.19-3.398-7.529-7.513-7.604l-267.243-.397h-.127zm85.978 177.448c-46.358 0-83.908-.252-85.558-.84-3.967-1.417-9.152-6.912-9.224-10.811-.15-8.443-.512-19.941-.933-33.259-1.27-40.148-3.009-95.13-.753-125.555.411-5.545 4.993-9.827 10.466-9.827h.178l267.257.396c5.65.097 10.183 4.658 10.316 10.382.205 8.887.493 17.97.785 27.177 1.223 38.544 2.488 78.402-1.782 116.094-.168 1.485-.242 3.126-.319 4.827-.361 7.907-.808 17.749-11.005 19.76-4.984.984-103.893 1.656-179.428 1.656z" mask="url(#b)"/>
            <path fill="#B6D0FB" d="M357.653 119.561l-251.803-.33c-4.529-.069-8.332 3.035-8.672 7.091-2.822 33.692 1.024 103.986 1.592 132.276.058 2.756 4.558 6.89 7.803 7.916 3.817 1.204 243.11.295 248.959-.727 10.502-1.833 8.714-12.584 9.596-19.466 4.984-38.91 1.921-81.205.93-119.263-.108-4.121-3.817-7.427-8.405-7.497" mask="url(#b)"/>
            <path fill="#415B91" d="M178.899 318.95c-2.752 0-3.488 2.302-3.488 3.663 0 1.358.736 3.655 3.488 3.655h104.772c2.754 0 3.488-2.304 3.488-3.663 0-1.358-.734-3.656-3.488-3.656H178.899zm104.772 10.162H178.899c-4.158 0-6.332-3.268-6.332-6.499 0-3.234 2.174-6.507 6.332-6.507h104.772c4.158 0 6.334 3.268 6.334 6.499 0 3.232-2.176 6.507-6.334 6.507z" mask="url(#b)"/>
            <path fill="#405B91" d="M440.12 331.159H.8c-.632 0-1.144-.723-1.144-1.619 0-.894.512-1.617 1.143-1.617H440.12c.633 0 1.145.723 1.145 1.617 0 .896-.512 1.619-1.145 1.619M92.142 376.05H2.295a1.77 1.77 0 0 1 0-3.538h89.847a1.768 1.768 0 1 1 0 3.538M406.365 386.064h-82.167a1.618 1.618 0 1 1 0-3.234h82.167a1.617 1.617 0 0 1 0 3.234M164.144 393.754H74.3a1.768 1.768 0 1 1 0-3.537h89.845a1.77 1.77 0 0 1 0 3.537M351.672 408.547h-89.847a1.77 1.77 0 0 1 0-3.537h89.847a1.768 1.768 0 1 1 0 3.537M38.503 168.2h1.18M38.503 170.853h1.18c1.388 0 2.719-1.22 2.654-2.654-.065-1.437-1.167-2.653-2.655-2.653h-1.179c-1.387 0-2.718 1.22-2.655 2.653.065 1.44 1.167 2.654 2.655 2.654" mask="url(#b)"/>
            <path fill="#B6D0FB" d="M280.519 54.48c-5.486 0-9.93-4.448-9.93-9.925 0-5.482 4.444-9.923 9.93-9.923 5.482 0 9.927 4.441 9.927 9.923 0 5.477-4.445 9.925-9.927 9.925m14.1 6.57l2.4-2.4a1.243 1.243 0 0 0 0-1.761l-2.092-2.086c-.482-.488-.61-1.372-.279-1.972l1.703-4.135c.193-.661.915-1.2 1.6-1.2h2.958c.687 0 1.245-.558 1.245-1.239v-3.4c0-.69-.558-1.242-1.245-1.242h-2.957c-.686 0-1.408-.538-1.6-1.198l-1.704-4.131c-.33-.602-.203-1.489.279-1.977l2.091-2.086a1.237 1.237 0 0 0 0-1.757l-2.399-2.408a1.248 1.248 0 0 0-1.76 0l-2.092 2.09c-.487.485-1.372.612-1.971.286l-4.14-1.704c-.658-.194-1.194-.91-1.194-1.6v-2.958c0-.682-.56-1.246-1.245-1.246h-3.396c-.688 0-1.247.564-1.247 1.246v2.958c0 .69-.536 1.406-1.195 1.6l-4.14 1.704c-.598.326-1.489.2-1.97-.287l-2.093-2.086a1.234 1.234 0 0 0-1.754 0l-2.41 2.405a1.24 1.24 0 0 0 0 1.757l2.09 2.086c.485.488.615 1.375.285 1.977l-1.704 4.131c-.193.66-.915 1.198-1.599 1.198h-2.962c-.682 0-1.244.552-1.244 1.241v3.401c0 .68.562 1.239 1.244 1.239h2.962c.684 0 1.406.539 1.599 1.2l1.704 4.135c.33.602.2 1.484-.284 1.972l-2.09 2.086a1.246 1.246 0 0 0 0 1.762l2.409 2.4c.48.49 1.269.49 1.754 0l2.093-2.088c.481-.485 1.372-.61 1.973-.28l4.137 1.702c.659.19 1.195.911 1.195 1.595v2.965c0 .68.56 1.241 1.247 1.241h3.396c.685 0 1.245-.56 1.245-1.241V61.98c0-.684.536-1.405 1.195-1.595l4.139-1.702c.599-.33 1.484-.205 1.97.28l2.093 2.088a1.24 1.24 0 0 0 1.76 0M309.864 76.203a6.152 6.152 0 0 1-8.329 2.517 6.147 6.147 0 0 1-2.518-8.322 6.15 6.15 0 1 1 10.847 5.805m7.714-5.772l-.606-2.016a.776.776 0 0 0-.962-.517l-1.75.532c-.409.124-.936-.068-1.165-.43l-1.764-2.135c-.297-.295-.382-.85-.18-1.223l.863-1.616a.775.775 0 0 0-.31-1.045l-1.857-.993a.77.77 0 0 0-1.043.316l-.87 1.613c-.198.374-.705.61-1.118.524l-2.759-.278c-.421.003-.875-.32-.993-.734l-.534-1.751a.766.766 0 0 0-.959-.512l-2.017.604a.775.775 0 0 0-.517.965l.536 1.75c.123.411-.07.928-.431 1.162L297 66.41c-.293.302-.848.38-1.221.181l-1.616-.866a.768.768 0 0 0-1.041.317l-.997 1.849a.776.776 0 0 0 .313 1.047l1.617.872c.377.198.611.7.524 1.114l-.275 2.758c0 .424-.327.878-.735.992l-1.754.534a.77.77 0 0 0-.515.962l.61 2.013c.12.41.555.638.963.513l1.754-.528c.404-.122.923.073 1.157.424l1.762 2.144c.3.295.382.848.184 1.223l-.866 1.614a.782.782 0 0 0 .317 1.047l1.851.99a.778.778 0 0 0 1.048-.313l.867-1.617c.198-.378.706-.609 1.12-.527l2.755.282c.43 0 .877.325.998.735l.527 1.75c.126.407.56.641.964.515l2.017-.61a.779.779 0 0 0 .519-.958l-.53-1.751c-.129-.406.062-.935.419-1.162l2.141-1.762c.297-.3.852-.384 1.224-.186l1.615.867a.767.767 0 0 0 1.046-.314l.995-1.856a.774.774 0 0 0-.317-1.044l-1.618-.868c-.373-.205-.61-.701-.52-1.112l.28-2.767c-.005-.42.327-.871.73-.992l1.756-.53a.77.77 0 0 0 .51-.96" mask="url(#b)"/>
            <path fill="#405B91" d="M389.307 67.56h-55.624a1.768 1.768 0 1 1 0-3.537h55.624a1.77 1.77 0 0 1 0 3.538M185.53 85.497H95.681a1.768 1.768 0 1 1 0-3.537h89.847a1.77 1.77 0 0 1 0 3.537" mask="url(#b)"/>
            <path fill="#6CDD6C" d="M73.995 232.38c-.524-3.234-2.814-11.576-7.854-8.934-8.156 4.274 1.682 20.5-8.146 23.363-.527-6.47-1.916-10.925-4.837-10.66-6.027.547-4.424 14.557-4.522 17.71-.099 3.14-.256 6.36-.397 9.612-7.09 1.27-5.69-17.215-10-19.77-6.705-3.976-8.13 4.883-7.945 8.975.314 6.963 2.187 15.295 8.73 18.993 2.16 1.22 5.96 2.596 8.921 2.347-.03 5.569.208 11.102 1.13 16.386.007.056.102.056.112 0l.002-.014 3.97.213c0 .026-.001.05-.003.074-.036 1.746 2.691 1.75 2.717 0 .047-3.36 2.112-19.858 2.361-33.839 3.17.473 7.158-1.001 9.443-2.676 6.768-4.965 7.562-14.096 6.318-21.78" mask="url(#b)"/>
            <path fill="#50AA50" d="M49.712 289.662l4.223.227-.022.734c-.009.351.116.46.212.517a.78.78 0 0 0 .735.003c.174-.096.256-.25.26-.478.016-1.151.254-3.704.583-7.237.643-6.897 1.612-17.32 1.778-26.605l.015-.858.848.127c2.928.436 6.764-.983 8.886-2.538 7.33-5.377 6.92-15.498 6.022-21.053-.394-2.434-1.77-7.355-4.155-8.547-.792-.398-1.645-.345-2.607.158-3.472 1.822-3.278 6.21-3.071 10.858.227 5.11.484 10.903-5.213 12.563l-.887.257-.075-.92c-.524-6.448-1.76-8.75-2.707-9.542-.399-.338-.815-.475-1.31-.428-4.378.395-4.044 10.095-3.882 14.757.034.948.058 1.724.045 2.226-.079 2.46-.191 4.97-.306 7.503l-.12 2.72-.593.106c-4.853.867-6.218-5.66-7.424-11.426-.776-3.706-1.578-7.54-3.092-8.438-1.645-.972-3.003-1.153-4.037-.532-2.249 1.347-2.894 6.13-2.77 8.827.286 6.39 1.968 14.766 8.346 18.37 2.201 1.243 5.802 2.473 8.489 2.253l.82-.068-.004.822c-.035 6.217.288 11.208 1.013 15.642m4.781 3.077c-.403 0-.802-.102-1.147-.31a1.914 1.914 0 0 1-.858-1.11l-2.928-.157-1.066.036-.164-.67c-.781-4.485-1.143-9.501-1.14-15.729-3.259-.001-6.833-1.513-8.536-2.475-6.979-3.945-8.808-12.843-9.112-19.615-.123-2.722.45-8.356 3.5-10.184 1.547-.926 3.426-.749 5.58.529 2.084 1.234 2.88 5.03 3.8 9.423 1.245 5.951 2.362 10.236 5.092 10.3l.065-1.46c.115-2.525.227-5.028.304-7.48.015-.481-.012-1.222-.044-2.127-.19-5.516-.545-15.786 5.25-16.31.896-.085 1.71.178 2.418.775 1.619 1.359 2.651 4.503 3.151 9.592 3.662-1.63 3.47-5.872 3.254-10.73-.218-4.912-.442-9.994 3.88-12.257 1.403-.735 2.742-.795 3.979-.174 3.602 1.801 4.839 8.856 4.967 9.654.954 5.893 1.362 16.656-6.617 22.508-2.223 1.63-5.97 3.063-9.15 2.896-.205 9.129-1.142 19.184-1.768 25.902-.314 3.367-.562 6.026-.577 7.12-.01.77-.39 1.414-1.036 1.775a2.275 2.275 0 0 1-1.097.278" mask="url(#b)"/>
            <path fill="#415B91" d="M66.192 327.993H37.385c-1.538 0-2.765-1.004-3.056-2.499l-6.54-33.562 2.714-.53 6.542 33.564c.05.262.268.262.34.262h28.807c.071 0 .29 0 .34-.26l6.488-33.565 2.715.524-6.49 33.567c-.288 1.495-1.516 2.5-3.053 2.5" mask="url(#b)"/>
            <path fill="#B6D0FB" d="M28.082 281.132h47.815c.816 0 1.483.9 1.483 2.004v7.266c0 1.103-.667 2.002-1.483 2.002H28.082c-.815 0-1.48-.899-1.48-2.002v-7.266c0-1.104.665-2.004 1.48-2.004" mask="url(#b)"/>
            <path fill="#405B91" d="M28.082 281.884c-.343 0-.728.536-.728 1.25v7.268c0 .715.385 1.249.728 1.249h47.815c.346 0 .729-.534.729-1.249v-7.267c0-.715-.383-1.25-.729-1.25H28.082zm47.815 11.273H28.082c-1.232 0-2.235-1.236-2.235-2.755v-7.267c0-1.52 1.003-2.757 2.235-2.757h47.815c1.234 0 2.235 1.237 2.235 2.757v7.267c0 1.519-1.001 2.755-2.235 2.755z" mask="url(#b)"/>
            <path fill="#B6D0FB" d="M28.082 281.761c-.402 0-.851.565-.851 1.375v7.266c0 .809.449 1.373.851 1.373h47.815c.404 0 .852-.564.852-1.373v-7.266c0-.81-.448-1.375-.852-1.375H28.082zm47.815 11.273H28.082c-1.165 0-2.11-1.18-2.11-2.632v-7.266c0-1.451.945-2.633 2.11-2.633h47.815c1.165 0 2.112 1.182 2.112 2.633v7.266c0 1.452-.947 2.632-2.112 2.632z" mask="url(#b)"/>
            <path fill="#405B91" d="M28.169 282.514c-.068.075-.184.287-.184.623v7.266c0 .384.153.605.211.645l47.702-.026c-.058-.014.098-.235.098-.62v-7.265c0-.387-.156-.61-.212-.648l-47.615.025zm47.73 11.273H28.081c-1.58 0-2.865-1.52-2.865-3.384v-7.266c0-1.868 1.285-3.388 2.865-3.388h47.816c1.579 0 2.864 1.52 2.864 3.388v7.266c0 1.864-1.285 3.384-2.864 3.384z" mask="url(#b)"/>
            <path fill="#50AA50" d="M33.296 252.598l2.36.301c.844.108.836-1.22 0-1.327l-2.36-.301c-.845-.108-.836 1.22 0 1.327M36.767 242.165v1.178c0 .855 1.326.856 1.326 0v-1.178c0-.853-1.326-.855-1.326 0M41.357 254.33l1.727-.96c.746-.416.079-1.563-.67-1.146l-1.727.961c-.746.415-.077 1.561.67 1.145M34.54 269.594l2.08-1.453c.695-.486.031-1.637-.67-1.144-.693.482-1.386.967-2.08 1.451-.694.486-.03 1.638.67 1.146M29.565 258.186l1.48.58c.795.31 1.14-.97.353-1.28l-1.48-.58c-.795-.311-1.14.971-.353 1.28M39.2 264.346c.317.024.505.172.697.407.546.659 1.48-.285.939-.938-.425-.515-.978-.749-1.636-.796-.852-.06-.848 1.265 0 1.327M42.11 270.588c-.143.928-.04 1.72.325 2.586.333.783 1.476.107 1.146-.67a2.804 2.804 0 0 1-.19-1.563c.129-.836-1.149-1.196-1.28-.353M49.046 270.832c.39.106.783.21 1.174.314.827.22 1.179-1.06.354-1.28l-1.175-.313c-.826-.22-1.18 1.059-.353 1.279M53.283 257.79c-.07.755.215 1.44.793 1.929.649.549 1.592-.386.939-.937-.34-.286-.445-.557-.406-.992.078-.85-1.25-.845-1.326 0M51.598 248.311c-.387.525-.453 1.063-.343 1.692.149.84 1.429.483 1.28-.353a.722.722 0 0 1 .21-.669c.505-.689-.647-1.352-1.147-.67M58.887 252.189v1.178c0 .855 1.326.855 1.326 0v-1.178c0-.853-1.326-.855-1.326 0M46.533 250.107c.295.198.59.394.886.59.713.476 1.376-.673.668-1.146l-.883-.588c-.714-.476-1.38.674-.671 1.144M48.754 239.1c.256.3.384.608.413 1 .065.846 1.394.853 1.327 0a3.195 3.195 0 0 0-.802-1.938c-.556-.65-1.49.294-.938.938M52.103 235.089v1.769c0 .854 1.326.856 1.326 0v-1.77c0-.852-1.326-.854-1.326 0M60.308 242.883l.575.604c.59.62 1.527-.319.939-.938-.193-.201-.384-.403-.575-.604-.59-.62-1.53.32-.939.938M61.624 234.977c.59.034 1.176.068 1.765.1.853.05.85-1.277 0-1.326l-1.765-.1c-.853-.05-.85 1.277 0 1.326M63.504 224.355l1.179 1.179c.606.605 1.544-.333.938-.937-.392-.394-.786-.786-1.179-1.18-.605-.604-1.542.334-.938.938M68.618 220.938v2.064c0 .853 1.327.854 1.327 0v-2.064c0-.853-1.327-.855-1.327 0M71.024 233.353c.194-.297.39-.592.585-.889.471-.714-.679-1.38-1.146-.668l-.586.887c-.47.714.68 1.381 1.147.67M66.525 246.381l1.48-.575c.787-.307.445-1.59-.354-1.279l-1.48.575c-.788.307-.445 1.59.354 1.28M72.399 244.53c.49-.102.98-.202 1.472-.305.836-.172.483-1.451-.353-1.279l-1.473.305c-.834.174-.48 1.454.354 1.28M68.618 250.715v.295c0 .852 1.327.854 1.327 0v-.295c0-.853-1.327-.855-1.327 0M57.222 271.028l.886-.59c.708-.471.042-1.621-.67-1.145l-.886.588c-.709.471-.043 1.62.67 1.147M56.447 275.917c.53-.506 1.096-.8 1.807-.967.831-.194.48-1.474-.353-1.28a5.057 5.057 0 0 0-2.392 1.31c-.618.59.322 1.527.938.937M50.982 276.715l.299.587c.387.762 1.533.09 1.146-.669l-.3-.588c-.388-.761-1.534-.09-1.145.67M45.928 278.142c.744.387 1.47.484 2.292.317.836-.169.482-1.448-.354-1.28-.465.095-.85.035-1.267-.184-.758-.392-1.43.753-.67 1.147M56.899 265.558l2.65-.33c.836-.106.846-1.433 0-1.328l-2.65.331c-.836.106-.847 1.433 0 1.327" mask="url(#b)"/>
            <path fill="#B6D0FB" d="M391.338 279.47h8.06l-4.54 17.91H386.8l4.538-17.91zm20.02 17.91h-8.057l4.539-17.91h8.058l-4.54 17.91zm16.501 0h-8.057l4.54-17.91h8.056l-4.539 17.91zm21.018-17.91v.095l-4.516 17.815h-8.057l4.538-17.91h8.035zm-57.653 48.633h7.327v-28.357h37.608v28.357h7.325v-28.357h7.756v-22.643h-6.188v-2.09h-10.673v2.09h-33.317v-2.09h-10.676v2.09h-6.792v22.643h7.63v28.357z" mask="url(#b)"/>
            <path fill="#405B91" d="M363.265 92.076c-.978 0-1.77-.792-1.77-1.77V83.42a1.768 1.768 0 1 1 3.538 0v6.888c0 .977-.792 1.769-1.768 1.769" mask="url(#b)"/>
            <path fill="#405B91" d="M366.709 88.632h-6.888a1.768 1.768 0 1 1 0-3.538h6.888a1.77 1.77 0 0 1 0 3.538M406.966 248.608a1.71 1.71 0 0 1-.486-.07l-6.625-1.89a1.767 1.767 0 0 1-1.215-2.186 1.768 1.768 0 0 1 2.186-1.216l6.625 1.891a1.77 1.77 0 0 1-.485 3.471" mask="url(#b)"/>
            <path fill="#405B91" d="M402.707 250.974a1.767 1.767 0 0 1-1.701-2.255l1.89-6.623a1.767 1.767 0 0 1 2.188-1.215 1.766 1.766 0 0 1 1.215 2.185l-1.89 6.623a1.771 1.771 0 0 1-1.702 1.285M344.78 89.122c3.415 0 3.422-5.306 0-5.306-3.417 0-3.422 5.306 0 5.306M151.147 67.955H61.298a1.77 1.77 0 0 1 0-3.538h89.85a1.77 1.77 0 0 1 0 3.538M503.236 167.315h-89.849a1.77 1.77 0 0 1 0-3.538h89.849a1.77 1.77 0 0 1 0 3.538" mask="url(#b)"/>
            <path stroke="#415B91" stroke-width="2" d="M218.978 161.365l-32.622 32.61M186.356 161.365l32.622 32.61M281.109 161.376l-32.62 32.61M248.488 161.376l32.62 32.61M207.499 231.853c1.148-1.453 10.477-12.832 26.444-12.898 15.474-.061 24.761 10.551 26.024 12.045" mask="url(#b)"/>
        </g>
        <path stroke="#415B91" stroke-width="2" d="M452 226.5C452 351.04 351.04 452 226.5 452S1 351.04 1 226.5C1 101.957 101.96 1 226.5 1S452 101.958 452 226.5z"/>
    </g>
</svg>
