<?xml version="1.0" encoding="utf-8"?>
<!-- Generator: Adobe Illustrator 21.1.0, SVG Export Plug-In . SVG Version: 6.00 Build 0)  -->
<svg version="1.1" id="Layer_1" xmlns="http://www.w3.org/2000/svg" xmlns:xlink="http://www.w3.org/1999/xlink" x="0px" y="0px"
	 viewBox="0 0 800 800" style="enable-background:new 0 0 800 800;" xml:space="preserve">
<style type="text/css">
	.st0{fill:#FFFFFF;}
</style>
<g>
	<path class="st0" d="M441.5,325.3h-82.4c-7.5,0-11.3,3.8-11.3,11.3v23.2c0,7.5,3.7,11.3,11.3,11.3h82.4c7.5,0,11.3-3.8,11.3-11.3
		v-23.2C452.8,329,449,325.3,441.5,325.3z"/>
	<path class="st0" d="M400,11.1C185.2,11.1,11.1,185.2,11.1,400c0,214.8,174.1,388.9,388.9,388.9c214.8,0,388.9-174.1,388.9-388.9
		C788.9,185.2,614.8,11.1,400,11.1z M549.8,358.5c0,51.1-24.1,76.7-72.2,76.7H365.3c-6.8,0-12.6-1.3-17.5-4v24.8
		c0,11.3,5.6,16.9,16.9,16.9h171v92.5H329.2c-52.7,0-79-25.9-79-77.8V312.3c0-51.9,25.4-77.9,76.2-77.9h151.2
		c48.1,0,72.2,25.2,72.2,75.6V358.5z"/>
</g>
</svg>
