<svg xmlns="http://www.w3.org/2000/svg" width="32" height="38.7199" viewBox="0 0 32 38.7199">
    <defs>
        <style>.cls-1{fill:#137df7;}.cls-2{fill:#fff;}</style>
    </defs>
    <g>
        <path class="cls-1" d="M4.5311,27.2346,15.66,38.72,27.1455,27.5907a16.1223,16.1223,0,0,0,.3562-22.7035A16.0238,16.0238,0,1,0,4.5311,27.2346Z"/>
        <path class="cls-2" d="M22.6939,22.2487H10.3182a.4624.4624,0,0,1-.3561-.1781c-.089-.089-.1781-.2671-.089-.3561L10.14,19.4H22.961l.2671,2.3149c0,.1781,0,.2671-.0891.3561C22.961,22.2487,22.8719,22.3377,22.6939,22.2487Zm.178-3.2942H10.14l.6232-5.7872c0-.089.089-.1781.1781-.2671s.178-.1781.2671-.1781h1.87v.9794a.9751.9751,0,0,0,.89.9794h0a.9192.9192,0,0,0,.9794-.9794v-.9794h2.849v.9794a.9752.9752,0,0,0,.89.9794h0a.9192.9192,0,0,0,.9793-.9794v-.9794h1.87a.5352.5352,0,0,1,.3562.0891c.089.089.178.178.178.2671l.8013,5.8762Zm-4.0065-4.8078a.4206.4206,0,0,1-.4451-.4452v-1.87a1.812,1.812,0,0,0-.5342-1.3355,1.9364,1.9364,0,0,0-2.671,0h0a1.498,1.498,0,0,0-.6233,1.3355v1.87a.4986.4986,0,0,1-.5342.4452.4206.4206,0,0,1-.4451-.4452v-1.87a2.8206,2.8206,0,0,1,.8013-2.0478,2.5052,2.5052,0,0,1,2.0477-.8013,2.8206,2.8206,0,0,1,2.0478.8013,2.5054,2.5054,0,0,1,.8013,2.0478v1.87a.4206.4206,0,0,1-.4452.4452Z"/>
    </g>
</svg>
