<svg xmlns="http://www.w3.org/2000/svg" width="32" height="38.7199" viewBox="0 0 32 38.7199">
    <defs>
        <style>.pin{fill:#137df7;}.icon{fill:#fff;}</style>
    </defs>
    <g>
        <path class="pin" d="M4.5311,27.2346,15.66,38.72,27.1455,27.5907a16.1223,16.1223,0,0,0,.3562-22.7035A16.0238,16.0238,0,1,0,4.5311,27.2346Z"/>
        <path class="icon" d="M21.2693,22.2487H10.7634a.9192.9192,0,0,1-.9794-.9794V11.8318a.9192.9192,0,0,1,.9794-.9794h.9794V10.14a.8677.8677,0,0,1,.3561-.8013A1.0625,1.0625,0,0,1,12.9,8.8937h.4452a.8679.8679,0,0,1,.8013.3561.9667.9667,0,0,1,.3561.8013v.7123h2.8491V10.14a.8677.8677,0,0,1,.3561-.8013.9668.9668,0,0,1,.8013-.3562h.6232a.8678.8678,0,0,1,.8013.3562.9667.9667,0,0,1,.3562.8013v.7122h.9793a.9192.9192,0,0,1,.9794.9794v9.5266A.9151.9151,0,0,1,21.2693,22.2487ZM10.7634,13.7015v7.6569H21.2693V13.7015Zm7.8349-3.8284c-.089,0-.2671.089-.2671.178h0v2.1368c0,.0891,0,.0891.0891.1781s.089.089.178.089h.5342c.0891,0,.0891,0,.1781-.089s.089-.089.089-.1781V10.14c0-.0891,0-.0891-.089-.1781s-.089-.089-.1781-.089Zm-5.6981,0c-.089,0-.2671.089-.2671.178h0v2.1368c0,.0891,0,.0891.089.1781s.0891.1781.1781.1781h.4452c.089,0,.2671-.0891.2671-.1781h0V10.14c0-.0891-.0891-.2671-.1781-.2671H12.9Zm2.671,10.15c-.089,0-.089,0-.1781-.0891L13.2563,17.797c0-.089-.089-.089-.089-.178s0-.0891.089-.1781l.3562-.3561a.3106.3106,0,0,1,.178-.0891c.0891,0,.0891,0,.1781.0891l1.6026,1.6026,3.2942-3.2943c.0891,0,.0891-.089.1781-.089s.089,0,.1781.089l.3561.3562a.3107.3107,0,0,1,.089.178c0,.0891,0,.0891-.089.1781l-3.8284,3.8284A.2758.2758,0,0,1,15.5712,20.0229Z"/>
    </g>
</svg>
