<svg xmlns="http://www.w3.org/2000/svg" width="32" height="38.7199" viewBox="0 0 32 38.7199">
    <defs>
        <style>.pin{fill:#fe8b90;}.icon{fill:#fff;}</style>
    </defs>
    <g>
        <path class="pin" d="M4.5311,27.2346,15.66,38.72,27.1455,27.5907a16.1223,16.1223,0,0,0,.3562-22.7035A16.0238,16.0238,0,1,0,4.5311,27.2346Z"/>
        <path class="icon" d="M18.9545,21.8035a1.1294,1.1294,0,0,1-.5342-.089,1.9409,1.9409,0,0,1-.4452-.3561l4.0065-4.0065a1.1285,1.1285,0,0,0,.3561-.8013,1.0875,1.0875,0,0,0-.3561-.8013L15.9273,9.695a1.8472,1.8472,0,0,0-.89-.5342,4.01,4.01,0,0,0-.9794-.2671h1.87a1.7944,1.7944,0,0,1,.9794.2671,1.8472,1.8472,0,0,1,.89.5342l6.0543,6.0543a1.1281,1.1281,0,0,1,.3561.8013,1.0875,1.0875,0,0,1-.3561.8013l-4.1846,4.1845A1.0106,1.0106,0,0,1,18.9545,21.8035Zm-3.2943,0a1.0875,1.0875,0,0,1-.8013-.3561L8.8047,15.3931a1.8472,1.8472,0,0,1-.5342-.89,1.7944,1.7944,0,0,1-.2671-.9794V9.9621A1.0875,1.0875,0,0,1,8.36,9.1608a1.1285,1.1285,0,0,1,.8013-.3561h3.5613a1.7944,1.7944,0,0,1,.9794.2671,1.8472,1.8472,0,0,1,.89.5342L20.6461,15.66a1.1285,1.1285,0,0,1,.3561.8013,1.0875,1.0875,0,0,1-.3561.8013l-4.1846,4.2736A1.4358,1.4358,0,0,1,15.66,21.8035ZM10.7634,10.5853a1.4366,1.4366,0,0,0-.8013.2671,1.4358,1.4358,0,0,0-.2671.8013,1.0286,1.0286,0,0,0,1.0684,1.0684h0a1.0875,1.0875,0,0,0,.8013-.3561,1.1285,1.1285,0,0,0,.3561-.8013,1.0875,1.0875,0,0,0-.3561-.8013A2.6007,2.6007,0,0,0,10.7634,10.5853Z"/>
    </g>
</svg>
